<svg width="16" height="18" viewBox="0 0 16 18" fill="none" xmlns="http://www.w3.org/2000/svg">
<g filter="url(#filter0_i_8_900)">
<path d="M1.36022 10.3112C0.33151 9.73973 0.33151 8.26027 1.36022 7.68876L13.7745 0.791921C14.9511 0.138297 16.3265 1.24504 15.9397 2.53418L14.1293 8.56898C14.045 8.85014 14.045 9.14986 14.1293 9.43102L15.9397 15.4658C16.3265 16.755 14.9511 17.8617 13.7745 17.2081L1.36022 10.3112Z" fill="#4A72FF"/>
</g>
<path d="M1.60305 8.12584L14.0174 1.229C14.8017 0.793248 15.7187 1.53108 15.4608 2.3905L13.6504 8.4253C13.5379 8.80018 13.5379 9.19982 13.6504 9.57469L15.4608 15.6095C15.7187 16.4689 14.8017 17.2067 14.0174 16.771L1.60305 9.87416C0.917236 9.49315 0.917236 8.50685 1.60305 8.12584Z" stroke="#6284FF"/>
<defs>
<filter id="filter0_i_8_900" x="0.588684" y="0.598389" width="16.4176" height="17.8032" filterUnits="userSpaceOnUse" color-interpolation-filters="sRGB">
<feFlood flood-opacity="0" result="BackgroundImageFix"/>
<feBlend mode="normal" in="SourceGraphic" in2="BackgroundImageFix" result="shape"/>
<feColorMatrix in="SourceAlpha" type="matrix" values="0 0 0 0 0 0 0 0 0 0 0 0 0 0 0 0 0 0 127 0" result="hardAlpha"/>
<feOffset dx="1" dy="1"/>
<feGaussianBlur stdDeviation="0.5"/>
<feComposite in2="hardAlpha" operator="arithmetic" k2="-1" k3="1"/>
<feColorMatrix type="matrix" values="0 0 0 0 0 0 0 0 0 0 0 0 0 0 0 0 0 0 0.25 0"/>
<feBlend mode="normal" in2="shape" result="effect1_innerShadow_8_900"/>
</filter>
</defs>
</svg>
