<svg width="24" height="24" viewBox="0 0 24 24" fill="none" xmlns="http://www.w3.org/2000/svg">
<path d="M11.9606 6.81818C11.9606 8.92691 10.2449 10.6364 8.12848 10.6364C6.01207 10.6364 4.29639 8.92691 4.29639 6.81818C4.29639 4.70946 6.01207 3 8.12848 3C10.2449 3 11.9606 4.70946 11.9606 6.81818Z" fill="white"/>
<path fill-rule="evenodd" clip-rule="evenodd" d="M8.12848 9.59287C9.66648 9.59287 10.9133 8.3506 10.9133 6.81818C10.9133 5.28577 9.66648 4.0435 8.12848 4.0435C6.59048 4.0435 5.34369 5.28577 5.34369 6.81818C5.34369 8.3506 6.59048 9.59287 8.12848 9.59287ZM8.12848 10.6364C10.2449 10.6364 11.9606 8.92691 11.9606 6.81818C11.9606 4.70946 10.2449 3 8.12848 3C6.01207 3 4.29639 4.70946 4.29639 6.81818C4.29639 8.92691 6.01207 10.6364 8.12848 10.6364Z" fill="white"/>
<path fill-rule="evenodd" clip-rule="evenodd" d="M10.477 12.0447C9.73294 11.8385 8.94461 11.7278 8.12847 11.7278C3.9916 11.7278 0.569218 14.5726 0 18.2732H10.6498C10.0908 17.3104 9.77079 16.1926 9.77079 15.0002C9.77079 13.9367 10.0253 12.9325 10.477 12.0447Z" fill="white"/>
<path fill-rule="evenodd" clip-rule="evenodd" d="M9.0415 12.8243C8.74284 12.7893 8.43813 12.7713 8.12847 12.7713C4.9431 12.7713 2.30387 14.6684 1.34877 17.2297H9.05778C8.84042 16.5242 8.72349 15.7753 8.72349 15.0002C8.72349 14.2449 8.83455 13.5142 9.0415 12.8243ZM10.0774 13.0181C9.87824 13.6433 9.77079 14.3093 9.77079 15.0002C9.77079 15.7831 9.90874 16.5339 10.1617 17.2297C10.294 17.5937 10.4578 17.9426 10.6498 18.2732H0C0.0548134 17.9169 0.136084 17.5685 0.241902 17.2297C1.23497 14.0511 4.38996 11.7278 8.12847 11.7278C8.56855 11.7278 9.00054 11.76 9.42188 11.822C9.78192 11.8749 10.1342 11.9497 10.477 12.0447C10.3188 12.3557 10.1848 12.681 10.0774 13.0181Z" fill="white"/>
<path fill-rule="evenodd" clip-rule="evenodd" d="M17.4307 20.502C20.4804 20.502 22.9527 18.0387 22.9527 15C22.9527 11.9614 20.4804 9.49809 17.4307 9.49809C14.381 9.49809 11.9087 11.9614 11.9087 15C11.9087 18.0387 14.381 20.502 17.4307 20.502ZM17.4307 21.5455C21.0588 21.5455 24 18.615 24 15C24 11.3851 21.0588 8.45459 17.4307 8.45459C13.8026 8.45459 10.8614 11.3851 10.8614 15C10.8614 18.615 13.8026 21.5455 17.4307 21.5455Z" fill="white"/>
<path fill-rule="evenodd" clip-rule="evenodd" d="M14.1741 15C14.1741 14.7119 14.4086 14.4783 14.6978 14.4783H20.1722C20.4614 14.4783 20.6959 14.7119 20.6959 15C20.6959 15.2882 20.4614 15.5218 20.1722 15.5218H14.6978C14.4086 15.5218 14.1741 15.2882 14.1741 15Z" fill="white"/>
<path fill-rule="evenodd" clip-rule="evenodd" d="M16.7103 12.4492C16.9148 12.653 16.9148 12.9833 16.7103 13.1871L14.8909 15L16.7103 16.8128C16.9148 17.0166 16.9148 17.3469 16.7103 17.5507C16.5058 17.7545 16.1743 17.7545 15.9698 17.5507L13.78 15.3689C13.5755 15.1651 13.5755 14.8348 13.78 14.631L15.9698 12.4492C16.1743 12.2454 16.5058 12.2454 16.7103 12.4492Z" fill="white"/>
</svg>
