<svg width="24" height="24" viewBox="0 0 24 24" fill="none" xmlns="http://www.w3.org/2000/svg">
<path d="M11.9606 6.81818C11.9606 8.92691 10.2449 10.6364 8.12848 10.6364C6.01207 10.6364 4.29639 8.92691 4.29639 6.81818C4.29639 4.70946 6.01207 3 8.12848 3C10.2449 3 11.9606 4.70946 11.9606 6.81818Z" fill="white"/>
<path fill-rule="evenodd" clip-rule="evenodd" d="M8.12848 9.59287C9.66648 9.59287 10.9133 8.3506 10.9133 6.81818C10.9133 5.28577 9.66648 4.0435 8.12848 4.0435C6.59048 4.0435 5.34369 5.28577 5.34369 6.81818C5.34369 8.3506 6.59048 9.59287 8.12848 9.59287ZM8.12848 10.6364C10.2449 10.6364 11.9606 8.92691 11.9606 6.81818C11.9606 4.70946 10.2449 3 8.12848 3C6.01207 3 4.29639 4.70946 4.29639 6.81818C4.29639 8.92691 6.01207 10.6364 8.12848 10.6364Z" fill="white"/>
<path fill-rule="evenodd" clip-rule="evenodd" d="M10.477 12.0447C9.73294 11.8385 8.94461 11.7278 8.12847 11.7278C3.9916 11.7278 0.569218 14.5726 0 18.2732H10.6498C10.0908 17.3104 9.77079 16.1926 9.77079 15.0002C9.77079 13.9367 10.0253 12.9325 10.477 12.0447Z" fill="white"/>
<path fill-rule="evenodd" clip-rule="evenodd" d="M9.0415 12.8243C8.74284 12.7893 8.43813 12.7713 8.12847 12.7713C4.9431 12.7713 2.30387 14.6684 1.34877 17.2297H9.05778C8.84042 16.5242 8.72349 15.7753 8.72349 15.0002C8.72349 14.2449 8.83455 13.5142 9.0415 12.8243ZM10.0774 13.0181C9.87824 13.6433 9.77079 14.3093 9.77079 15.0002C9.77079 15.7831 9.90874 16.5339 10.1617 17.2297C10.294 17.5937 10.4578 17.9426 10.6498 18.2732H0C0.0548134 17.9169 0.136084 17.5685 0.241902 17.2297C1.23497 14.0511 4.38996 11.7278 8.12847 11.7278C8.56855 11.7278 9.00054 11.76 9.42188 11.822C9.78192 11.8749 10.1342 11.9497 10.477 12.0447C10.3188 12.3557 10.1848 12.681 10.0774 13.0181Z" fill="white"/>
<path fill-rule="evenodd" clip-rule="evenodd" d="M17.4307 20.502C20.4804 20.502 22.9527 18.0387 22.9527 15C22.9527 11.9614 20.4804 9.49809 17.4307 9.49809C14.381 9.49809 11.9087 11.9614 11.9087 15C11.9087 18.0387 14.381 20.502 17.4307 20.502ZM17.4307 21.5455C21.0588 21.5455 24 18.615 24 15C24 11.3851 21.0588 8.45459 17.4307 8.45459C13.8026 8.45459 10.8614 11.3851 10.8614 15C10.8614 18.615 13.8026 21.5455 17.4307 21.5455Z" fill="white"/>
<path fill-rule="evenodd" clip-rule="evenodd" d="M20.147 15C20.147 15.2881 19.9125 15.5217 19.6233 15.5217H14.1489C13.8597 15.5217 13.6253 15.2881 13.6253 15C13.6253 14.7118 13.8597 14.4782 14.1489 14.4782H19.6233C19.9125 14.4782 20.147 14.7118 20.147 15Z" fill="white"/>
<path fill-rule="evenodd" clip-rule="evenodd" d="M17.6122 17.5506C17.4077 17.3468 17.4077 17.0164 17.6122 16.8127L19.4317 14.9998L17.6122 13.1869C17.4077 12.9832 17.4077 12.6528 17.6122 12.4491C17.8167 12.2453 18.1483 12.2453 18.3528 12.4491L20.5425 14.6309C20.747 14.8346 20.747 15.165 20.5425 15.3687L18.3528 17.5506C18.1483 17.7543 17.8167 17.7543 17.6122 17.5506Z" fill="white"/>
</svg>
