<svg width="15" height="16" viewBox="0 0 15 16" fill="none" xmlns="http://www.w3.org/2000/svg">
<path fill-rule="evenodd" clip-rule="evenodd" d="M14.8496 6.96636C14.9639 6.98423 15.0018 7.02385 14.9999 7.14591C14.9913 7.68641 14.993 8.22725 14.9981 8.76776C14.9991 8.87734 14.9689 8.91831 14.857 8.94124C14.5413 9.00646 14.2266 9.0764 13.9119 9.14635C13.6783 9.19826 13.4447 9.25018 13.2107 9.30017C12.9823 9.34889 12.8302 9.47803 12.7584 9.69652C12.6526 10.0194 12.5263 10.3333 12.3744 10.6369C12.2611 10.8637 12.2869 11.0741 12.4307 11.2801C12.5712 11.4813 12.7102 11.6836 12.8492 11.8858C13.0098 12.1194 13.1703 12.353 13.3331 12.585C13.3955 12.6738 13.4152 12.7263 13.3193 12.815C12.9186 13.186 12.5263 13.5662 12.1368 13.9491C12.0613 14.0234 12.0143 14.0246 11.9288 13.9663C11.6222 13.7565 11.3131 13.5505 11.0039 13.3445C10.8684 13.2542 10.7328 13.1639 10.5975 13.0732C10.4898 13.0011 10.3792 12.9387 10.1964 12.9471H10.1963C10.1939 12.9463 10.1486 12.9416 10.111 12.9566C10.0497 12.9809 9.98849 13.0051 9.92723 13.0293C9.63213 13.146 9.33694 13.2627 9.04684 13.3907C8.87624 13.4662 8.81116 13.6335 8.77323 13.808C8.74118 13.9551 8.70883 14.1021 8.67648 14.2492C8.59533 14.6182 8.51417 14.9872 8.43774 15.3571C8.41549 15.464 8.37689 15.5003 8.26461 15.4991C7.72395 15.4927 7.1833 15.491 6.64281 15.4999C6.50828 15.5021 6.47811 15.4527 6.46057 15.333C6.41431 15.0198 6.3631 14.7073 6.31189 14.3949C6.28118 14.2076 6.25048 14.0202 6.22085 13.8327C6.17971 13.5718 6.04417 13.3963 5.78741 13.3158C5.54853 13.2411 5.31605 13.1477 5.09115 13.0382C4.843 12.9171 4.62249 12.9534 4.40754 13.1204C4.21254 13.272 4.01574 13.4212 3.81894 13.5704C3.60741 13.7308 3.3959 13.8912 3.18664 14.0544C3.09847 14.1232 3.0484 14.1197 2.96833 14.0421C2.5762 13.662 2.17985 13.286 1.77912 12.9149C1.70073 12.8424 1.69989 12.792 1.75249 12.7065C1.87102 12.5133 1.98762 12.3188 2.10422 12.1242C2.26507 11.8559 2.42592 11.5876 2.59187 11.3224C2.73601 11.092 2.75506 10.8724 2.62593 10.6314C2.4737 10.3466 2.35113 10.0475 2.25774 9.73884C2.1758 9.46775 1.99508 9.32984 1.72585 9.2742C1.45396 9.21816 1.18273 9.15894 0.911514 9.09973C0.655695 9.04387 0.399879 8.98802 0.143507 8.93483C0.0393211 8.91325 -0.00147659 8.877 4.06824e-05 8.76337C0.0067841 8.21731 0.0067841 7.6709 0.0010522 7.12484C-0.000127903 7.01003 0.0376352 6.97648 0.148227 6.95996C0.662773 6.88267 1.17633 6.79773 1.6898 6.71281C1.73638 6.70511 1.78295 6.6974 1.82953 6.68971C2.04852 6.65363 2.20902 6.53949 2.28977 6.32572C2.40559 6.01871 2.53877 5.71963 2.68932 5.42797C2.79586 5.22145 2.77226 5.02504 2.64953 4.82829C2.50155 4.59094 2.35574 4.35224 2.20993 4.11353C2.05124 3.85375 1.89256 3.59397 1.73108 3.33593C1.67325 3.24371 1.67325 3.19077 1.75552 3.11355C2.15406 2.74012 2.54821 2.36181 2.93882 1.97995C3.01283 1.90762 3.05902 1.90054 3.14349 1.96579C3.42688 2.18465 3.71245 2.40061 3.99804 2.61658C4.18322 2.75662 4.36841 2.89666 4.55303 3.03752C4.72128 3.16599 4.90116 3.2051 5.10144 3.12974C5.15038 3.11137 5.19935 3.09305 5.24832 3.07474C5.43345 3.0055 5.61856 2.93627 5.80242 2.86387C6.05681 2.76356 6.14616 2.53141 6.19134 2.29892C6.29082 1.78569 6.36901 1.26843 6.44718 0.751351C6.4522 0.718106 6.45723 0.684862 6.46226 0.65162C6.47996 0.533943 6.52025 0.498371 6.64096 0.500057C7.18145 0.507306 7.7221 0.506295 8.26275 0.500562C8.37318 0.499382 8.41431 0.532932 8.4364 0.641336C8.5054 0.981425 8.57788 1.3208 8.65036 1.66017C8.7045 1.91367 8.75864 2.16717 8.81133 2.42098C8.85719 2.64268 8.98211 2.78851 9.19267 2.86623C9.40627 2.94513 9.61919 3.02589 9.83195 3.10698C10.0604 3.19397 10.2522 3.14609 10.4528 3.00077C10.7721 2.76947 11.0984 2.54797 11.4248 2.32645C11.5958 2.21036 11.7669 2.09426 11.9369 1.97674C11.9922 1.93864 12.0229 1.95432 12.0642 1.9936C12.1057 2.03309 12.1471 2.07257 12.1886 2.11206C12.5669 2.47221 12.9452 2.8324 13.3277 3.18807C13.3949 3.25049 13.3663 3.28979 13.3338 3.33447C13.3292 3.34083 13.3245 3.3473 13.32 3.35396C13.2284 3.48895 13.1374 3.62432 13.0464 3.7597C12.8268 4.08627 12.6073 4.41285 12.3801 4.73405C12.2066 4.97969 12.178 5.21622 12.3297 5.47905C12.4745 5.72975 12.5876 5.99612 12.6831 6.26941C12.7726 6.526 12.9445 6.66408 13.2178 6.70387C13.5316 6.74958 13.8444 6.80166 14.1573 6.85374C14.3879 6.89213 14.6186 6.93052 14.8496 6.96636ZM10 8C10 9.38071 8.88071 10.5 7.5 10.5C6.11929 10.5 5 9.38071 5 8C5 6.61929 6.11929 5.5 7.5 5.5C8.88071 5.5 10 6.61929 10 8Z" fill="white"/>
</svg>
