<svg width="15" height="20" viewBox="0 0 15 20" fill="none" xmlns="http://www.w3.org/2000/svg">
<path fill-rule="evenodd" clip-rule="evenodd" d="M14.2279 8.62684C14.9611 9.38525 14.961 10.6149 14.2279 11.3733L6.57648 19.2887C6.32652 19.5473 5.88888 19.3703 5.88888 19.0107L5.88888 15.3396C5.88888 15.0776 5.99169 14.8261 6.1752 14.6391L10.0409 10.7005C10.4226 10.3116 10.4226 9.68854 10.0409 9.29958L6.1752 5.36102C5.99169 5.17405 5.88888 4.92253 5.88888 4.66055L5.88888 0.989333C5.88888 0.629691 6.32653 0.452746 6.57648 0.711328L14.2279 8.62684Z" fill="#6D6D6D"/>
<path fill-rule="evenodd" clip-rule="evenodd" d="M5.54524 9.23715C6.00344 9.65849 6.00343 10.3416 5.54524 10.7629L1.00408 14.9388C0.747671 15.1746 0.333331 14.9927 0.333331 14.6443L0.333331 12.7394L0.33333 10L0.333331 7.26074L0.333331 5.3557C0.333331 5.00735 0.747673 4.82547 1.00408 5.06126L5.54524 9.23715Z" fill="#6D6D6D"/>
</svg>
