<svg width="15" height="20" viewBox="0 0 15 20" fill="none" xmlns="http://www.w3.org/2000/svg">
<path fill-rule="evenodd" clip-rule="evenodd" d="M0.772062 8.62684C0.0389441 9.38525 0.03896 10.6149 0.772062 11.3733L8.42352 19.2887C8.67348 19.5473 9.11112 19.3703 9.11112 19.0107L9.11112 15.3396C9.11112 15.0776 9.00831 14.8261 8.8248 14.6391L4.95912 10.7005C4.57736 10.3116 4.57736 9.68854 4.95912 9.29958L8.8248 5.36102C9.00831 5.17405 9.11112 4.92253 9.11112 4.66055L9.11112 0.989333C9.11112 0.629691 8.67347 0.452746 8.42352 0.711328L0.772062 8.62684Z" fill="#6D6D6D"/>
<path fill-rule="evenodd" clip-rule="evenodd" d="M9.45476 9.23715C8.99656 9.65849 8.99657 10.3416 9.45476 10.7629L13.9959 14.9388C14.2523 15.1746 14.6667 14.9927 14.6667 14.6443L14.6667 12.7394L14.6667 10L14.6667 7.26074L14.6667 5.3557C14.6667 5.00735 14.2523 4.82547 13.9959 5.06126L9.45476 9.23715Z" fill="#6D6D6D"/>
</svg>
