<svg width="18" height="18" viewBox="0 0 18 18" fill="none" xmlns="http://www.w3.org/2000/svg">
<path fill-rule="evenodd" clip-rule="evenodd" d="M17.8195 7.75964C17.9566 7.78109 18.0021 7.82863 17.9999 7.9751C17.9896 8.6237 17.9916 9.27271 17.9977 9.92132C17.9989 10.0528 17.9627 10.102 17.8284 10.1295C17.4496 10.2078 17.0719 10.2917 16.6943 10.3756C16.414 10.4379 16.1337 10.5002 15.8529 10.5602C15.5788 10.6187 15.3963 10.7736 15.3101 11.0358C15.1831 11.4233 15.0315 11.8 14.8493 12.1643C14.7133 12.4364 14.7443 12.6889 14.9168 12.9361C15.0854 13.1776 15.2523 13.4203 15.4191 13.6631C15.6117 13.9434 15.8044 14.2237 15.9998 14.502C16.0746 14.6086 16.0983 14.6715 15.9832 14.778C15.5023 15.2232 15.0315 15.6794 14.5642 16.1389C14.4736 16.2281 14.4171 16.2295 14.3146 16.1595C13.9467 15.9078 13.5758 15.6606 13.2048 15.4135C13.0421 15.3051 12.8794 15.1967 12.717 15.0879C12.5877 15.0013 12.455 14.9264 12.2357 14.9366H12.2355C12.2327 14.9356 12.1783 14.9299 12.1331 14.9479C12.0597 14.9771 11.9862 15.0061 11.9127 15.0352C11.5586 15.1752 11.2043 15.3152 10.8562 15.4688C10.6515 15.5595 10.5734 15.7602 10.5279 15.9696C10.4894 16.1461 10.4506 16.3226 10.4118 16.499C10.3144 16.9418 10.217 17.3846 10.1253 17.8286C10.0986 17.9568 10.0523 18.0003 9.91753 17.9989C9.26875 17.9912 8.61996 17.9892 7.97138 17.9999C7.80994 18.0026 7.77373 17.9433 7.75269 17.7996C7.69717 17.4237 7.63572 17.0488 7.57427 16.6739C7.53742 16.4491 7.50058 16.2243 7.46502 15.9993C7.41565 15.6861 7.253 15.4755 6.9449 15.379C6.65823 15.2894 6.37926 15.1773 6.10939 15.0458C5.8116 14.9006 5.54698 14.944 5.28905 15.1445C5.05505 15.3264 4.81889 15.5055 4.58274 15.6845C4.3289 15.877 4.07508 16.0694 3.82397 16.2653C3.71817 16.3479 3.65808 16.3436 3.56199 16.2506C3.09144 15.7944 2.61582 15.3432 2.13495 14.8979C2.04088 14.8109 2.03987 14.7504 2.10298 14.6479C2.24522 14.4159 2.38514 14.1825 2.52507 13.9491C2.71808 13.6271 2.91111 13.3051 3.11025 12.9869C3.28322 12.7104 3.30608 12.4469 3.15111 12.1576C2.96843 11.8159 2.82136 11.457 2.70929 11.0866C2.61097 10.7613 2.3941 10.5958 2.07102 10.5291C1.74475 10.4618 1.41929 10.3907 1.09383 10.3197C0.786842 10.2527 0.479859 10.1856 0.172208 10.1218C0.0471853 10.0959 -0.0017719 10.0524 4.88189e-05 9.91606C0.00814092 9.26078 0.00814092 8.60509 0.00126263 7.94981C-0.000153484 7.81204 0.0451623 7.77178 0.177873 7.75195C0.795371 7.6592 1.41168 7.55727 2.02789 7.45536C2.08374 7.44612 2.13959 7.43688 2.19544 7.42765C2.45823 7.38436 2.65082 7.24739 2.74772 6.99086C2.8867 6.62246 3.04652 6.26356 3.22718 5.91357C3.35504 5.66574 3.32671 5.43005 3.17944 5.19395C3.00187 4.90913 2.82689 4.62269 2.65192 4.33624C2.46149 4.02451 2.27107 3.71276 2.07729 3.40311C2.0079 3.29245 2.0079 3.22892 2.10663 3.13627C2.58487 2.68815 3.05785 2.23417 3.52659 1.77594C3.6154 1.68915 3.67083 1.68065 3.77218 1.75894C4.11226 2.02159 4.45494 2.28073 4.79765 2.5399C5.01986 2.70794 5.24209 2.876 5.46364 3.04502C5.66553 3.19918 5.88139 3.24612 6.12173 3.15569C6.18047 3.13364 6.23923 3.11166 6.298 3.08968C6.52015 3.0066 6.74228 2.92352 6.9629 2.83665C7.26817 2.71627 7.3754 2.43769 7.42961 2.15871C7.54899 1.54281 7.64282 0.922087 7.73662 0.301577C7.74265 0.261698 7.74868 0.22182 7.75471 0.181944C7.77595 0.0407322 7.82431 -0.00195505 7.96915 6.80462e-05C8.61774 0.00876735 9.26652 0.00755349 9.9153 0.000674974C10.0478 -0.000741191 10.0972 0.0395184 10.1237 0.169603C10.2065 0.577693 10.2934 0.984921 10.3804 1.39216C10.4454 1.69637 10.5104 2.00059 10.5736 2.30518C10.6286 2.57122 10.7785 2.74621 11.0312 2.83948C11.2875 2.93416 11.543 3.03107 11.7983 3.12838C12.0725 3.23277 12.3027 3.17531 12.5434 3.00092C12.9265 2.72336 13.3181 2.45756 13.7097 2.19175C13.915 2.05243 14.1202 1.91311 14.3243 1.77209C14.3906 1.72637 14.4275 1.74519 14.477 1.79233C14.5268 1.83973 14.5766 1.88715 14.6264 1.93457C15.0803 2.36671 15.5343 2.79891 15.9933 3.22569C16.0739 3.3006 16.0396 3.34776 16.0006 3.40136C15.995 3.409 15.9894 3.41676 15.984 3.42476C15.8741 3.58675 15.7649 3.74921 15.6557 3.91167C15.3922 4.30354 15.1287 4.69544 14.8561 5.08086C14.648 5.37563 14.6136 5.65947 14.7957 5.97487C14.9694 6.2757 15.1052 6.59535 15.2197 6.92329C15.3271 7.23121 15.5335 7.3969 15.8614 7.44464C16.2379 7.4995 16.6133 7.56199 16.9888 7.62449C17.2655 7.67056 17.5423 7.71663 17.8195 7.75964ZM12.4 8.99995C12.4 10.8777 10.8778 12.4 9 12.4C7.12223 12.4 5.6 10.8777 5.6 8.99995C5.6 7.12218 7.12223 5.59995 9 5.59995C10.8778 5.59995 12.4 7.12218 12.4 8.99995Z" fill="white"/>
</svg>
